<svg width="24" height="24" viewBox="0 0 24 24" fill="none" xmlns="http://www.w3.org/2000/svg">
<path d="M3.46865 3.09375C3.38427 3.17812 3.3749 3.24844 3.3749 3.84375V4.5H3.09365C2.64833 4.5 2.6249 4.54219 2.6249 5.34375V6H2.0999C1.4999 6 1.29833 6.06562 1.04521 6.33281C0.726459 6.67031 0.749897 6.10781 0.749897 13.875C0.749897 21.6422 0.726459 21.0797 1.04521 21.4172C1.12958 21.5016 1.27958 21.6141 1.38271 21.6609C1.56552 21.7453 1.94052 21.75 11.9905 21.75C21.2999 21.75 22.4296 21.7406 22.5843 21.675C22.814 21.5812 23.053 21.3469 23.1608 21.1172C23.2452 20.9391 23.2499 20.6484 23.2499 13.875C23.2499 7.10156 23.2452 6.81094 23.1608 6.63281C23.114 6.52969 23.0015 6.37969 22.9171 6.29531C22.6593 6.05625 22.4718 6 21.8905 6H21.3749V5.34375C21.3749 4.54219 21.3515 4.5 20.9061 4.5H20.6249V3.84375C20.6249 2.925 20.7608 3 19.1249 3C17.489 3 17.6249 2.925 17.6249 3.84375V4.5H17.3436C16.8983 4.5 16.8749 4.54219 16.8749 5.34375V6H11.9999H7.1249V5.34375C7.1249 4.54219 7.10146 4.5 6.65615 4.5H6.3749V3.84375C6.3749 2.925 6.51083 3 4.8749 3C3.62333 3 3.55771 3.00469 3.46865 3.09375ZM5.6249 4.125V4.5H4.8749H4.1249V4.125V3.75H4.8749H5.6249V4.125ZM19.8749 4.125V4.5H19.1249H18.3749V4.125V3.75H19.1249H19.8749V4.125ZM6.3749 5.625V6H4.8749H3.3749V5.625V5.25H4.8749H6.3749V5.625ZM20.6249 5.625V6H19.1249H17.6249V5.625V5.25H19.1249H20.6249V5.625ZM22.2186 6.80156C22.514 6.90937 22.4999 6.49687 22.4999 13.875C22.4999 21.2531 22.514 20.8406 22.2186 20.9484C21.9983 21.0234 2.00146 21.0234 1.78115 20.9484C1.48583 20.8406 1.4999 21.2484 1.4999 13.8844C1.4999 9.00937 1.51396 7.14375 1.55146 7.03125C1.58896 6.93281 1.65927 6.85781 1.75302 6.81562C1.8749 6.76406 3.5999 6.75469 11.9811 6.75C19.3874 6.75 22.1061 6.76406 22.2186 6.80156Z" fill="black"/>
<path d="M4.5 8.0625V8.625H3.9375H3.375V9V9.375H3.9375H4.5V9.9375V10.5H4.875H5.25V9.9375V9.375H5.8125H6.375V9V8.625H5.8125H5.25V8.0625V7.5H4.875H4.5V8.0625Z" fill="black"/>
<path d="M11.7609 7.92185C11.6391 7.99216 8.625 14.8125 8.625 15.0187C8.625 15.1265 8.65781 15.2203 8.71875 15.2812C8.80781 15.3703 8.87344 15.375 10.2188 15.375H11.625V17.5312C11.625 19.6265 11.6297 19.6922 11.7188 19.7812C11.8219 19.8844 12.0844 19.9078 12.2297 19.8281C12.3609 19.7625 15.375 12.9515 15.375 12.7312C15.375 12.6234 15.3422 12.5297 15.2813 12.4687C15.1922 12.3797 15.1266 12.375 13.7812 12.375H12.375V10.2187C12.375 8.12341 12.3703 8.05779 12.2813 7.96873C12.1781 7.8656 11.8969 7.84216 11.7609 7.92185ZM11.7094 13.0406C11.7563 13.0875 12.0938 13.1062 13.0734 13.125L14.3813 13.1484L13.3781 15.3984L12.3797 17.6484L12.375 16.2375C12.375 15.0984 12.3609 14.8125 12.3094 14.7375C12.2484 14.6531 12.1594 14.6484 10.9313 14.625L9.61875 14.6015L10.6125 12.3703L11.6016 10.139L11.625 11.5594C11.6438 12.6375 11.6625 12.9937 11.7094 13.0406Z" fill="black"/>
<path d="M17.25 9V9.375H19.125H21V9V8.625H19.125H17.25V9Z" fill="black"/>
</svg>
