<svg width="24" height="24" viewBox="0 0 24 24" fill="none" xmlns="http://www.w3.org/2000/svg">
<path d="M7.37813 3.69843C7.14844 3.80625 6.87656 4.11094 6.80625 4.35468C6.6375 4.9125 6.90938 5.52656 7.41563 5.7375C7.56094 5.79844 7.82813 5.8125 8.97656 5.8125H10.3594V6.32812V6.84375H8.22656C6.33281 6.84375 6.07031 6.85312 5.93906 6.91875C5.62031 7.0875 3.43594 8.59219 3.27188 8.76094C3.17813 8.85937 3.07969 9.02344 3.05156 9.12187C3.02344 9.22969 3 9.78281 3 10.4625V11.625H2.60156H2.20312V10.275V8.92969L2.0625 8.68594C1.85625 8.32969 1.54688 8.15625 1.10156 8.15625C0.65625 8.15625 0.346875 8.32969 0.140625 8.68594L0 8.92969V12.8203V16.7109L0.140625 16.9547C0.346875 17.3109 0.65625 17.4844 1.10156 17.4844C1.54688 17.4844 1.85625 17.3109 2.0625 16.9547L2.20312 16.7109V15.2437V13.7812H2.60156H3V14.9625C3 16.2703 3.02813 16.4016 3.31406 16.6687C3.38438 16.7391 5.0625 17.6016 7.04531 18.5906L10.6406 20.3906H11.4141H12.1828L12.2766 20.2687C12.4078 20.1047 12.4031 19.9172 12.2672 19.7906C12.1688 19.6969 12.1078 19.6875 11.5641 19.6875H10.9688L7.44375 17.925C5.50313 16.9547 3.87656 16.1297 3.83438 16.0875C3.75469 16.0219 3.75 15.7969 3.75 12.675V9.3375L3.92813 9.20156C4.02188 9.12656 4.59844 8.72812 5.20312 8.31562L6.30469 7.57031H11.2547H16.2047L18.0516 9.1125C19.0688 9.96094 19.9781 10.7297 20.0766 10.8187L20.25 10.9875V15.2344C20.25 17.5687 20.2313 19.5 20.2125 19.5328C20.1188 19.6781 19.8844 19.6875 16.6172 19.6875H13.3172L13.2234 19.8094C13.1672 19.8797 13.125 19.9828 13.125 20.0391C13.125 20.0953 13.1672 20.1984 13.2234 20.2687L13.3172 20.3906H16.8H20.2828L20.4891 20.2828C20.625 20.2078 20.7422 20.0953 20.8359 19.9453C20.9672 19.7344 20.9766 19.6828 20.9906 19.1859L21.0094 18.6562H21.4031H21.7969V18.9937C21.8016 19.5844 22.1156 19.9969 22.6547 20.1094C23.1516 20.2125 23.6109 20.0109 23.8594 19.5797L24 19.3359V17.0766V14.8172L23.8781 14.7234C23.7188 14.5969 23.5781 14.5969 23.4188 14.7234L23.2969 14.8172V16.8656C23.2969 18.1547 23.2781 18.9797 23.2453 19.0922C23.2125 19.2234 23.1562 19.2891 23.0438 19.3453C22.9031 19.4109 22.875 19.4109 22.7438 19.3406C22.6359 19.2844 22.5844 19.2141 22.5469 19.0781C22.5141 18.9562 22.5 17.7375 22.5094 15.3328L22.5234 11.775L22.6359 11.6531C22.7906 11.4891 23.0063 11.4891 23.1609 11.6531C23.2688 11.7703 23.2734 11.7937 23.2969 12.7594C23.3203 13.6641 23.3297 13.7484 23.4094 13.8094C23.5453 13.9078 23.7938 13.8937 23.9062 13.7812C23.9953 13.6922 24 13.6266 24 12.6422C24 11.4984 23.9719 11.3766 23.6906 11.0906C23.2734 10.6781 22.5188 10.6781 22.1063 11.0906C21.8813 11.3203 21.7969 11.5406 21.7969 11.9062V12.2344H21.3984H21V11.5359C21 10.5047 21.1641 10.7109 18.7031 8.6625C17.5781 7.725 16.6031 6.93281 16.5328 6.9C16.4344 6.85781 15.9141 6.84375 14.4609 6.84375H12.5156V6.32812V5.8125H13.8984C15.3938 5.8125 15.4453 5.80312 15.7406 5.55469C15.9891 5.34375 16.0969 5.09062 16.0969 4.71094C16.0969 4.33125 15.9891 4.07812 15.7406 3.86719C15.4313 3.60468 15.4828 3.60937 12.7969 3.60937C10.3734 3.60937 10.3078 3.61406 10.2188 3.70312C10.1625 3.75937 10.125 3.85781 10.125 3.96094C10.125 4.06406 10.1625 4.1625 10.2188 4.21875C10.3078 4.30781 10.3734 4.3125 12.6469 4.3125C14.7703 4.3125 14.9906 4.32187 15.1406 4.39687C15.4547 4.55156 15.4406 4.90781 15.1172 5.04375C14.9766 5.1 14.4328 5.10937 11.3391 5.1L7.725 5.08594L7.6125 4.95469C7.47188 4.78594 7.47188 4.63594 7.6125 4.46719L7.725 4.33594L8.45625 4.32187C9.17344 4.30312 9.1875 4.30312 9.28125 4.18594C9.40313 4.03125 9.39844 3.89062 9.27656 3.73125L9.18281 3.60937H8.37656C7.69688 3.60937 7.54219 3.62344 7.37813 3.69843ZM11.7656 6.32812V6.84375H11.4375H11.1094V6.32812V5.8125H11.4375H11.7656V6.32812ZM1.36406 9.02812L1.47656 9.15V12.8203V16.4906L1.36406 16.6125C1.28906 16.6922 1.2 16.7344 1.10156 16.7344C1.00313 16.7344 0.914063 16.6922 0.839063 16.6125L0.726562 16.4906V12.8203V9.15L0.839063 9.02812C0.914063 8.94844 1.00313 8.90625 1.10156 8.90625C1.2 8.90625 1.28906 8.94844 1.36406 9.02812ZM3 12.7031V13.0312H2.60156H2.20312V12.7031V12.375H2.60156H3V12.7031ZM21.7969 15.4453V17.9062H21.3984H21V15.4453V12.9844H21.3984H21.7969V15.4453Z" fill="black"/>
<path d="M13.0687 9.93748C12.8812 10.0687 12.0749 10.6406 11.2734 11.2172C9.36087 12.5859 9.37493 12.5625 10.1484 13.3594L10.5843 13.8047L10.214 15C10.0124 15.6562 9.84837 16.2562 9.84368 16.3265C9.84368 16.6312 10.0827 16.8515 10.4062 16.8469C10.5562 16.8422 10.8562 16.6547 12.4031 15.6094C13.4062 14.9344 14.2734 14.339 14.3296 14.2828C14.4468 14.175 14.5077 13.9359 14.4656 13.7578C14.4468 13.6875 14.1984 13.3828 13.9077 13.0687L13.3827 12.5015L13.7484 11.4375C13.9452 10.8515 14.1093 10.2937 14.1093 10.1953C14.1093 10.0594 14.0765 9.98904 13.9499 9.86248C13.7109 9.62341 13.5093 9.63748 13.0687 9.93748ZM12.8671 11.6672C12.6046 12.4406 12.5671 12.6515 12.6702 12.825C12.7031 12.8812 12.9187 13.1297 13.1484 13.3781C13.3827 13.6265 13.5749 13.8469 13.5796 13.8656C13.589 13.9031 10.8281 15.764 10.8046 15.7406C10.7952 15.7312 10.9124 15.314 11.0671 14.8125C11.3484 13.8844 11.3859 13.6687 11.2921 13.4859C11.264 13.4297 11.0812 13.2234 10.8937 13.0265L10.5421 12.675L11.8218 11.7609C12.5249 11.2547 13.1062 10.8562 13.1156 10.875C13.1202 10.889 13.0124 11.2453 12.8671 11.6672Z" fill="black"/>
</svg>
