<svg width="32" height="36" viewBox="0 0 32 36" fill="none" xmlns="http://www.w3.org/2000/svg">
<path d="M28.3813 0.395724C28.8817 0.896083 28.8817 1.70733 28.3813 2.20768L27.441 3.14803C33.0597 9.69279 32.7692 19.5633 26.5694 25.7632C23.6431 28.6895 19.899 30.2993 16.0729 30.5926V33.2042H19.0625C19.7701 33.2042 20.3437 33.7778 20.3437 34.4854C20.3437 35.193 19.7701 35.7667 19.0625 35.7667H10.5208C9.81319 35.7667 9.23955 35.193 9.23955 34.4854C9.23955 33.7778 9.81319 33.2042 10.5208 33.2042H13.5104V30.5926C10.083 30.3297 6.72137 29.0104 3.95424 26.6348L3.01389 27.5751C2.51353 28.0755 1.70229 28.0755 1.20193 27.5751C0.70157 27.0748 0.70157 26.2635 1.20193 25.7632L2.4099 24.5552C3.25627 23.7088 4.57146 23.7521 5.39542 24.4905C8.06378 26.8818 11.4249 28.0781 14.7864 28.0792L14.7916 28.0792L14.7972 28.0792C18.4022 28.0777 22.007 26.7017 24.7574 23.9512C30.0753 18.6333 30.2551 10.1221 25.2967 4.58921C24.5583 3.76525 24.515 2.45006 25.3614 1.6037L26.5694 0.395724C27.0697 -0.104635 27.881 -0.104635 28.3813 0.395724Z" fill="#353535"/>
<path fill-rule="evenodd" clip-rule="evenodd" d="M3.26039 13.9854C3.26039 7.6169 8.4231 2.45418 14.7916 2.45418C21.1602 2.45418 26.3229 7.6169 26.3229 13.9854C26.3229 20.354 21.1602 25.5167 14.7916 25.5167C8.4231 25.5167 3.26039 20.354 3.26039 13.9854ZM14.7916 5.01668C9.83833 5.01668 5.82289 9.03213 5.82289 13.9854C5.82289 14.5574 5.87644 15.1169 5.97879 15.6592C6.68146 14.8929 7.69086 14.4125 8.81247 14.4125C10.9353 14.4125 12.6562 16.1334 12.6562 18.2563C12.6562 19.8319 11.7081 21.1862 10.3513 21.7796C11.6605 22.5271 13.1762 22.9542 14.7916 22.9542C19.1365 22.9542 22.7598 19.8646 23.5844 15.7625C22.4422 17.5206 20.461 18.6833 18.2083 18.6833C14.6702 18.6833 11.8021 15.8152 11.8021 12.2771C11.8021 8.73903 14.6702 5.87085 18.2083 5.87085C18.356 5.87085 18.5026 5.87585 18.6478 5.88569C17.4797 5.32856 16.1721 5.01668 14.7916 5.01668ZM14.3646 12.2771C14.3646 10.1543 16.0855 8.43335 18.2083 8.43335C20.3311 8.43335 22.0521 10.1543 22.0521 12.2771C22.0521 14.3999 20.3311 16.1208 18.2083 16.1208C16.0855 16.1208 14.3646 14.3999 14.3646 12.2771ZM8.81247 16.975C8.10486 16.975 7.53122 17.5487 7.53122 18.2563C7.53122 18.9639 8.10486 19.5375 8.81247 19.5375C9.52009 19.5375 10.0937 18.9639 10.0937 18.2563C10.0937 17.5487 9.52009 16.975 8.81247 16.975Z" fill="#353535"/>
</svg>
