<svg width="36" height="43" viewBox="0 0 36 43" fill="none" xmlns="http://www.w3.org/2000/svg">
<path fill-rule="evenodd" clip-rule="evenodd" d="M0.823288 4.28092C0.600027 1.60019 3.60351 0.11803 5.66522 1.49531L6.33213 1.94084C16.5012 8.73413 26.0184 16.4006 34.7682 24.8476C36.9479 26.9519 35.0258 30.2728 32.3059 29.9816L20.4566 28.7126C19.2502 28.5834 18.1384 29.2319 17.6806 30.2422L12.8912 40.8105C11.7345 43.3629 7.92433 43.1256 7.16622 40.3718C3.98299 28.8087 1.88186 16.9913 0.888404 5.06278L0.823288 4.28092ZM4.23652 4.5997L4.25176 4.78267C5.20302 16.2045 7.18797 27.5233 10.1836 38.6087L14.6065 28.8491C15.6875 26.4638 18.2152 25.0782 20.816 25.3568L31.6317 26.5151C23.2463 18.5085 14.1538 11.2248 4.45737 4.74724L4.23652 4.5997Z" fill="#353535"/>
</svg>
