<svg width="28" height="32" viewBox="0 0 28 32" fill="none" xmlns="http://www.w3.org/2000/svg">
<path fill-rule="evenodd" clip-rule="evenodd" d="M14 6.79793C11.1581 6.79793 8.85421 9.1018 8.85421 11.9438C8.85421 14.7857 11.1581 17.0896 14 17.0896C16.842 17.0896 19.1459 14.7857 19.1459 11.9438C19.1459 9.1018 16.842 6.79793 14 6.79793ZM11.2292 11.9438C11.2292 10.4135 12.4698 9.17293 14 9.17293C15.5303 9.17293 16.7709 10.4135 16.7709 11.9438C16.7709 13.4741 15.5303 14.7146 14 14.7146C12.4698 14.7146 11.2292 13.4741 11.2292 11.9438Z" fill="#353535"/>
<path fill-rule="evenodd" clip-rule="evenodd" d="M14 0.4646C7.66028 0.4646 2.52088 5.604 2.52088 11.9438C2.52088 14.2683 3.21182 16.4315 4.39952 18.2391L0.304971 25.3311C0.0721183 25.7344 0.0965074 26.2366 0.367346 26.6154C0.638185 26.9943 1.10547 27.1798 1.56243 27.09L5.70106 26.2764L7.06579 30.2674C7.21647 30.708 7.61082 31.0199 8.07434 31.065C8.53785 31.1102 8.98496 30.8802 9.21782 30.4769L13.3025 23.4021C13.5332 23.4159 13.7658 23.4229 14 23.4229C14.2343 23.4229 14.4669 23.4159 14.6976 23.4021L18.7823 30.4769C19.0154 30.8806 19.4631 31.1106 19.927 31.0649C20.391 31.0193 20.7853 30.7064 20.9351 30.2649L22.293 26.2659L26.4351 27.0895C26.8924 27.1804 27.3605 26.9954 27.632 26.6165C27.9035 26.2375 27.9282 25.7348 27.6951 25.3311L23.6006 18.2391C24.7883 16.4315 25.4792 14.2683 25.4792 11.9438C25.4792 5.604 20.3398 0.4646 14 0.4646ZM4.89588 11.9438C4.89588 6.91567 8.97196 2.8396 14 2.8396C19.0281 2.8396 23.1042 6.91567 23.1042 11.9438C23.1042 16.9719 19.0281 21.0479 14 21.0479C8.97196 21.0479 4.89588 16.9719 4.89588 11.9438ZM10.8077 22.9732C8.98211 22.4457 7.34366 21.4773 6.01514 20.1908L3.66832 24.2556L6.26018 23.746C6.84293 23.6315 7.4207 23.9651 7.61286 24.527L8.46754 27.0264L10.8077 22.9732ZM19.5288 27.0199L17.1924 22.9732C19.018 22.4457 20.6564 21.4773 21.985 20.1907L24.328 24.249L21.7349 23.7334C21.1504 23.6172 20.5704 23.9521 20.3788 24.5163L19.5288 27.0199Z" fill="#353535"/>
</svg>
