<svg width="35" height="41" viewBox="0 0 35 41" fill="none" xmlns="http://www.w3.org/2000/svg">
<path fill-rule="evenodd" clip-rule="evenodd" d="M8.19793 17.4854C8.19793 12.348 12.3626 8.18335 17.5 8.18335C22.6374 8.18335 26.8021 12.348 26.8021 17.4854C26.8021 22.6228 22.6374 26.7875 17.5 26.7875C12.3626 26.7875 8.19793 22.6228 8.19793 17.4854ZM17.5 11.1209C13.9849 11.1209 11.1354 13.9704 11.1354 17.4854C11.1354 21.0005 13.9849 23.85 17.5 23.85C21.0151 23.85 23.8646 21.0005 23.8646 17.4854C23.8646 13.9704 21.0151 11.1209 17.5 11.1209Z" fill="#353535"/>
<path fill-rule="evenodd" clip-rule="evenodd" d="M0.901886 15.2468C1.59578 6.82866 8.63041 0.350017 17.0771 0.350017H17.923C26.3696 0.350017 33.4042 6.82866 34.0981 15.2468C34.4709 19.7688 33.074 24.2591 30.2018 27.7717L20.8154 39.2511C19.1019 41.3467 15.8981 41.3467 14.1846 39.2511L4.79819 27.7717C1.92598 24.2591 0.529139 19.7688 0.901886 15.2468ZM17.0771 3.28752C10.1592 3.28752 4.39776 8.59358 3.82946 15.4881C3.51923 19.2517 4.68178 22.9888 7.07225 25.9123L16.4587 37.3916C16.9969 38.0498 18.0031 38.0498 18.5414 37.3916L27.9278 25.9123C30.3182 22.9888 31.4808 19.2517 31.1706 15.4881C30.6023 8.59358 24.8408 3.28752 17.923 3.28752H17.0771Z" fill="#353535"/>
</svg>
