<svg width="23" height="22" viewBox="0 0 23 22" fill="none" xmlns="http://www.w3.org/2000/svg">
<path d="M10.2871 0.0420895C9.71211 0.100489 8.76875 0.293653 8.18027 0.468847C5.10762 1.40322 2.57852 3.55049 1.16797 6.43447C0.350391 8.11006 0 9.61943 0 11.4927C0 13.631 0.507617 15.5312 1.55879 17.319L1.80137 17.7368H2.4168H3.03223L3.86328 17.0136C4.32148 16.6183 4.69883 16.2769 4.70781 16.2589C4.72129 16.2185 4.27207 15.7153 4.22266 15.7153C4.2002 15.7153 3.75547 16.0882 3.23438 16.5464C2.71328 17.0046 2.27305 17.3774 2.25508 17.3774C2.20566 17.3774 1.65312 16.3487 1.44199 15.8591C0.8625 14.5384 0.588477 13.294 0.552539 11.7937L0.525586 10.8638H1.725H2.91992V10.4819V10.1001H1.77441C0.745703 10.1001 0.628906 10.0911 0.628906 10.0282C0.628906 9.85752 0.8625 8.81084 1.01523 8.32119C1.41953 6.97803 2.0125 5.8415 2.91992 4.66904L3.24336 4.25127L4.09238 5.0958L4.94141 5.94482L5.21992 5.66182L5.50293 5.3833L4.65391 4.53428L3.80937 3.68975L4.00254 3.50557C5.44004 2.18486 7.17852 1.25498 9.00684 0.82373C9.44707 0.720411 9.87832 0.648535 10.6375 0.558691L10.8711 0.527246V1.90186V3.27197H11.2529H11.6348V1.90186V0.531738H11.783C12.084 0.53623 13.1576 0.662012 13.6113 0.751856C15.1971 1.06631 16.7334 1.74463 18.0271 2.70596C18.4135 2.99346 19.285 3.74815 19.3119 3.82002C19.3209 3.84248 18.9436 4.24678 18.4809 4.71397L17.6318 5.56299L17.9014 5.83252L18.1709 6.10205L19.0199 5.25303L19.8734 4.39951L20.1834 4.81279C20.965 5.85498 21.5221 6.90615 21.8994 8.05166C22.0836 8.61768 22.2857 9.43525 22.3531 9.88447L22.3801 10.1001H21.2076H20.0352V10.4819V10.8638H21.2525H22.4744L22.4475 11.7937C22.398 13.7073 21.9578 15.2706 20.9875 16.9956C20.8797 17.1933 20.7809 17.364 20.7674 17.3774C20.7584 17.3864 20.3271 16.9731 19.8105 16.4565L18.8672 15.5132L18.5887 15.7962L18.3057 16.0747L19.1367 16.9058L19.9678 17.7368H20.5787H21.1941L21.4412 17.319C22.4834 15.5671 23 13.6354 23 11.4927C23 9.61943 22.6496 8.11006 21.832 6.43447C20.4439 3.59541 17.9732 1.46611 14.95 0.509277C14.3301 0.316114 13.2969 0.10498 12.65 0.0420895C12.084 -0.0163078 10.8441 -0.011816 10.2871 0.0420895Z" fill="black"/>
<path d="M9.30778 9.95186C9.34372 9.99678 9.79294 10.5538 10.3006 11.1872C10.9744 12.0228 11.2304 12.3732 11.2304 12.4585C11.2304 12.6067 11.3248 12.7864 11.473 12.9257C11.6347 13.0739 12.0345 13.1099 12.2502 12.9976C12.8297 12.6831 12.632 11.7173 11.9896 11.7173C11.8549 11.7173 11.6527 11.587 10.5791 10.7964C9.40661 9.93839 9.14157 9.7587 9.30778 9.95186Z" fill="black"/>
<path d="M6.51367 20.7241V21.106H11.5H16.4863V20.7241V20.3423H11.5H6.51367V20.7241Z" fill="black"/>
</svg>
